<svg width="640" height="400" viewBox="0 0 640 400" fill="none" xmlns="http://www.w3.org/2000/svg" role="img" aria-label="Default blog thumbnail">
  <rect width="640" height="400" rx="28" fill="#FFFFFF"/>
  <rect x="40" y="40" width="560" height="320" rx="22" fill="#FAFAFA" stroke="#D9D9D9" stroke-width="2"/>
  <rect x="40" y="40" width="560" height="48" rx="22" fill="#F5F5F5"/>
  <circle cx="72" cy="64" r="7" fill="#111111" fill-opacity="0.2"/>
  <circle cx="96" cy="64" r="7" fill="#111111" fill-opacity="0.12"/>
  <circle cx="120" cy="64" r="7" fill="#111111" fill-opacity="0.12"/>
  <rect x="76" y="114" width="188" height="18" rx="9" fill="#111111"/>
  <rect x="76" y="152" width="416" height="12" rx="6" fill="#D7D7D7"/>
  <rect x="76" y="178" width="364" height="12" rx="6" fill="#D7D7D7"/>
  <rect x="76" y="204" width="390" height="12" rx="6" fill="#D7D7D7"/>
  <rect x="76" y="256" width="132" height="14" rx="7" fill="#111111"/>
  <rect x="220" y="256" width="268" height="14" rx="7" fill="#E6E6E6"/>
  <rect x="76" y="284" width="312" height="14" rx="7" fill="#E6E6E6"/>
  <rect x="76" y="312" width="196" height="14" rx="7" fill="#E6E6E6"/>
</svg>
